<svg class="svg-icon" style="width: 1em;height: 1em;vertical-align: middle;fill: currentColor;overflow: hidden;" viewBox="0 0 1024 1024" version="1.1" xmlns="http://www.w3.org/2000/svg"><path d="M511.999 512.001m-511.999 0a511.999 511.999 0 1 0 1023.998 0 511.999 511.999 0 1 0-1023.998 0Z" fill="#238b45" /><path d="M511.999 512.001m-407.005205 0a407.005205 407.005205 0 1 0 814.01041 0 407.005205 407.005205 0 1 0-814.01041 0Z" fill="#41ab5d" /><path d="M717.778598 200.393609H230.61555c-26.307949 0-47.631907 21.325958-47.631907 47.631907V813.678411c0 26.307949 21.323958 47.631907 47.631907 47.631907H717.778598c26.303949 0 47.627907-21.323958 47.627907-47.631907V248.027516c0-26.307949-21.323958-47.633907-47.627907-47.633907z" fill="#238b45" /><path d="M803.210431 466.617089c0 26.305949-21.323958 47.631907-47.627907 47.631907H268.419476c-26.307949 0-47.631907-21.327958-47.631907-47.631907V220.975568c0-26.305949 21.323958-47.631907 47.631907-47.631907h487.163048c26.303949 0 47.627907 21.325958 47.627907 47.631907v245.641521z" fill="#CDCCCA" /><path d="M803.210431 786.628464c0 26.307949-21.323958 47.631907-47.627907 47.631907H268.419476c-26.307949 0-47.631907-21.325958-47.631907-47.631907V401.135217c0-26.307949 21.323958-47.633907 47.631907-47.633907h487.163048c26.303949 0 47.627907 21.325958 47.627907 47.633907v385.493247z" fill="#E8E9EC" /><path d="M753.910528 753.996527c0 21.853957-17.713965 39.567923-39.565923 39.567923H309.657395c-21.851957 0-39.565923-17.713965-39.565923-39.567923V433.767153c0-21.853957 17.713965-39.569923 39.565923-39.569923h404.68721c21.851957 0 39.565923 17.713965 39.565923 39.569923v320.229374z" fill="#494A4A" /><path d="M530.520964 577.188873c0-59.603884-48.315906-107.919789-107.921789-107.91979-59.601884 0-107.921789 48.317906-107.92179 107.91979v16.693967h1.289998c8.027984 51.675899 52.707897 91.225822 106.631792 91.225822s98.609807-39.549923 106.631791-91.225822h1.289998v-16.693967z" fill="#CDCCCA" /><path d="M422.599175 593.88084m-107.92179 0a107.921789 107.921789 0 1 0 215.843579 0 107.921789 107.921789 0 1 0-215.843579 0Z" fill="#E8E9EC" /><path d="M422.601175 593.88084m-84.125836 0a84.125836 84.125836 0 1 0 168.251671 0 84.125836 84.125836 0 1 0-168.251671 0Z" fill="#494A4A" /><path d="M422.601175 593.88084m-55.369892 0a55.369892 55.369892 0 1 0 110.739783 0 55.369892 55.369892 0 1 0-110.739783 0Z" fill="#494A4A" /><path d="M442.193136 538.664948c2.453995 0.867998 4.823991 1.899996 7.105986 3.069994l8.065985-18.697964a80.757842 80.757842 0 0 0-7.105986-3.067994l-8.065985 18.695964zM452.755116 543.648938a59.109885 59.109885 0 0 1 6.355987 4.425992l11.601978-16.715968a82.00184 82.00184 0 0 0-6.351988-4.421991l-11.605977 16.711967zM430.395159 535.828953c2.585995 0.345999 5.12199 0.853998 7.589986 1.523997l4.039992-19.961961a79.179845 79.179845 0 0 0-7.585986-1.529997l-4.043992 19.967961zM469.165084 558.344909a59.873883 59.873883 0 0 1 4.281991 6.447988l16.959967-11.253978a78.015848 78.015848 0 0 0-4.281991-6.449988l-16.959967 11.255978zM387.063244 547.316931a59.379884 59.379884 0 0 1 6.441987-4.279992l-11.249978-16.963966a77.633848 77.633848 0 0 0-6.445987 4.283991l11.253978 16.959967zM418.731182 515.072994v20.36396a60.419882 60.419882 0 0 1 3.867993-0.14c1.299997 0 2.589995 0.058 3.875992 0.14v-20.36396c-1.285997-0.062-2.577995-0.098-3.875992-0.098s-2.589995 0.036-3.867993 0.098zM397.407224 540.976943a58.223886 58.223886 0 0 1 7.195986-2.853994l-7.511986-18.909963a77.02785 77.02785 0 0 0-7.187986 2.861994l7.503986 18.901963zM481.18506 593.88084c0 1.299997-0.058 2.591995-0.144 3.871993h20.367961a80.245843 80.245843 0 0 0 0-7.743985h-20.367961c0.084 1.281997 0.144 2.569995 0.144 3.871992zM408.407202 537.036951a58.953885 58.953885 0 0 1 7.617985-1.365997l-3.617992-20.017961a78.675846 78.675846 0 0 0-7.617986 1.365997l3.617993 20.017961zM364.017289 593.88084c0-1.301997 0.058-2.591995 0.14-3.871992h-20.36396a80.169843 80.169843 0 0 0-0.098 3.871992c0 1.295997 0.036 2.587995 0.098 3.871993h20.36396c-0.082-1.279998-0.14-2.569995-0.14-3.871993zM378.533261 632.470765l-14.397972 14.401972a78.089847 78.089847 0 0 0 5.475989 5.471989l14.397972-14.401972a59.663883 59.663883 0 0 1-5.475989-5.471989zM466.665089 632.470765a60.169882 60.169882 0 0 1-5.47599 5.471989l14.397972 14.403972a77.293849 77.293849 0 0 0 5.475989-5.475989l-14.397971-14.399972zM466.665089 555.292915l14.397971-14.401971a77.659848 77.659848 0 0 0-5.475989-5.47199l-14.397972 14.401972c1.939996 1.703997 3.767993 3.529993 5.47599 5.471989zM499.461024 576.074875l-20.01996 3.611993a59.679883 59.679883 0 0 1 1.367997 7.619985l20.019961-3.615993a79.539845 79.539845 0 0 0-1.367998-7.615985zM378.541261 555.290915c1.699997-1.939996 3.527993-3.767993 5.467989-5.471989l-14.397972-14.401972a76.289851 76.289851 0 0 0-5.467989 5.47199l14.397972 14.401971zM475.505071 568.692889a58.279886 58.279886 0 0 1 2.851995 7.195986l18.905963-7.515985a76.95185 76.95185 0 0 0-2.855995-7.191986l-18.901963 7.511985zM392.439234 644.112742a59.089885 59.089885 0 0 1-6.343988-4.427991l-11.605977 16.721967a79.601845 79.601845 0 0 0 6.351987 4.417991l11.597978-16.711967zM447.787125 646.786737a58.297886 58.297886 0 0 1-7.191986 2.853994l7.511986 18.909963a78.755846 78.755846 0 0 0 7.195986-2.861994l-7.515986-18.901963zM426.473167 672.690686v-20.36596a59.339884 59.339884 0 0 1-3.875992 0.142 59.039885 59.039885 0 0 1-3.867993-0.142v20.36596c1.277998 0.06 2.569995 0.098 3.867993 0.098s2.591995-0.04 3.875992-0.098zM436.791147 650.724729a58.159886 58.159886 0 0 1-7.617985 1.365997l3.617993 20.019961a78.457847 78.457847 0 0 0 7.617985-1.365997l-3.617993-20.019961zM458.137105 640.446749a58.427886 58.427886 0 0 1-6.449987 4.279992l11.253978 16.967967a78.501847 78.501847 0 0 0 6.445987-4.285992l-11.249978-16.961967zM472.833076 624.036781a58.759885 58.759885 0 0 1-4.429991 6.349988l16.717967 11.605977a80.193843 80.193843 0 0 0 4.421992-6.355987l-16.709968-11.599978zM372.369273 563.726899a57.331888 57.331888 0 0 1 4.433991-6.349988l-16.725967-11.605977a80.103844 80.103844 0 0 0-4.413992 6.355988l16.705968 11.599977zM477.817067 613.474802a58.775885 58.775885 0 0 1-3.077994 7.105986l18.699963 8.063984a78.599846 78.599846 0 0 0 3.069994-7.105986l-18.691963-8.063984zM480.649061 601.678825a57.999887 57.999887 0 0 1-1.523997 7.589985l19.959961 4.037992c0.631999-2.483995 1.147998-5.01599 1.531997-7.587985l-19.967961-4.039992zM365.755286 608.076812a59.011885 59.011885 0 0 1-1.363998-7.621985l-20.019961 3.615993c0.331999 2.581995 0.789998 5.12399 1.367998 7.619985l20.015961-3.613993zM364.547288 586.082855c0.343999-2.587995 0.855998-5.11999 1.523997-7.589985l-19.959961-4.037992a79.101846 79.101846 0 0 0-1.531997 7.587985l19.967961 4.039992zM367.379282 574.288878a59.135885 59.135885 0 0 1 3.077994-7.105986l-18.699963-8.063984a79.287845 79.287845 0 0 0-3.069994 7.107986l18.691963 8.061984zM369.697278 619.068791a59.427884 59.427884 0 0 1-2.855994-7.193986l-18.905964 7.515985a78.067848 78.067848 0 0 0 2.855995 7.191986l18.905963-7.513985zM403.005213 649.098732a58.439886 58.439886 0 0 1-7.105986-3.073994l-8.061984 18.699964c2.307995 1.133998 4.679991 2.159996 7.105986 3.067994l8.061984-18.693964zM414.80519 651.934727a57.541888 57.541888 0 0 1-7.589985-1.525997l-4.041992 19.961961a79.259845 79.259845 0 0 0 7.589985 1.529997l4.041992-19.965961zM376.033266 629.414771a58.645885 58.645885 0 0 1-4.277992-6.445988l-16.963967 11.253978a77.02385 77.02385 0 0 0 4.285992 6.447988l16.955967-11.255978zM474.197074 593.88084c0-28.495944-23.101955-51.595899-51.597899-51.595899s-51.593899 23.099955-51.5939 51.595899v15.34397h2.319996c6.531987 21.001959 26.121949 36.251929 49.273904 36.251929s42.741917-15.24997 49.277903-36.251929h2.319996v-15.34397z" fill="#CDCCCA" /><path d="M422.601175 609.22481m-51.5959 0a51.595899 51.595899 0 1 0 103.191799 0 51.595899 51.595899 0 1 0-103.191799 0Z" fill="#E8E9EC" /><path d="M662.046707 515.540993m-59.135885 0a59.135885 59.135885 0 1 0 118.271769 0 59.135885 59.135885 0 1 0-118.271769 0Z" fill="#CDCCCA" /><path d="M662.048707 515.540993m-35.92793 0a35.92793 35.92793 0 1 0 71.85586 0 35.92793 35.92793 0 1 0-71.85586 0Z" fill="#494A4A" /><path d="M626.122777 515.540993h71.85586v21.789958h-71.85586z" fill="#494A4A" /><path d="M697.976637 537.328951c0-19.841961-16.085969-35.92593-35.92993-35.92593-19.839961 0-35.92593 16.083969-35.92593 35.92593 0 0.899998 0.07 1.783997 0.132 2.667994h-0.036l11.457978 141.077725h0.027999c0.893998 12.679975 11.437978 22.697956 24.343953 22.697955 12.909975 0 23.453954-10.01798 24.347952-22.697955h0.024l11.457978-141.077725h-0.036c0.062-0.883998 0.136-1.767997 0.136-2.667994z" fill="#E8E9EC" /></svg>