<svg class="svg-icon" style="width: 1em; height: 1em;vertical-align: middle;fill: currentColor;overflow: hidden;" viewBox="0 0 1024 1024" version="1.1" xmlns="http://www.w3.org/2000/svg"><path d="M873.28 681.28a32 32 0 0 1 45.44 45.44l-128 128a32 32 0 0 1-45.44-45.44z"  /><path d="M800 832a32 32 0 0 1-64 0V256a32 32 0 0 1 64 0zM192 288a32 32 0 0 1 0-64h448a32 32 0 0 1 0 64z m0 192a32 32 0 0 1 0-64h448a32 32 0 0 1 0 64z m0 192a32 32 0 0 1 0-64h448a32 32 0 0 1 0 64z m0 192a32 32 0 0 1 0-64h448a32 32 0 0 1 0 64z"  /></svg>